<?xml version="1.0" encoding="UTF-8"?>
<!DOCTYPE svg PUBLIC "-//W3C//DTD SVG 1.1//EN" "http://www.w3.org/Graphics/SVG/1.1/DTD/svg11.dtd">
<svg xmlns="http://www.w3.org/2000/svg" version="1.1" width="1316px" height="1316px" style="shape-rendering:geometricPrecision; text-rendering:geometricPrecision; image-rendering:optimizeQuality; fill-rule:evenodd; clip-rule:evenodd" xmlns:xlink="http://www.w3.org/1999/xlink">
<g><path style="opacity:1" fill="#f9f9f9" d="M 239.5,-0.5 C 518.167,-0.5 796.833,-0.5 1075.5,-0.5C 1150.18,7.75152 1211.35,40.7515 1259,98.5C 1263.77,105.051 1268.27,111.718 1272.5,118.5C 1272.43,120.027 1273.09,121.027 1274.5,121.5C 1297.71,157.476 1311.38,196.809 1315.5,239.5C 1315.5,515.167 1315.5,790.833 1315.5,1066.5C 1314.05,1072.27 1313.39,1078.27 1313.5,1084.5C 1299.12,1181.02 1248.12,1250.52 1160.5,1293C 1133.22,1304.94 1104.88,1312.44 1075.5,1315.5C 796.833,1315.5 518.167,1315.5 239.5,1315.5C 226.683,1314.03 214.017,1311.7 201.5,1308.5C 199.485,1307.08 197.152,1306.41 194.5,1306.5C 115.595,1284.43 58.428,1236.43 23,1162.5C 11.4674,1137.7 4.30072,1111.7 1.5,1084.5C 1.67874,1078.6 1.01208,1072.93 -0.5,1067.5C -0.5,791.167 -0.5,514.833 -0.5,238.5C 3.82692,196.184 17.4936,157.184 40.5,121.5C 41.9063,121.027 42.573,120.027 42.5,118.5C 52.6157,102.375 64.6157,87.7086 78.5,74.5C 81.7642,72.9059 84.4309,70.5725 86.5,67.5C 106.517,48.6378 129.183,33.4712 154.5,22C 161.98,18.5901 169.647,15.7567 177.5,13.5C 181.162,13.2766 184.495,12.2766 187.5,10.5C 189.515,9.07619 191.848,8.40953 194.5,8.5C 197.152,8.59047 199.485,7.92381 201.5,6.5C 213.992,3.13479 226.658,0.801454 239.5,-0.5 Z"/></g>
<g><path style="opacity:1" fill="#a1a1a1" d="M 201.5,6.5 C 199.485,7.92381 197.152,8.59047 194.5,8.5C 196.515,7.07619 198.848,6.40953 201.5,6.5 Z"/></g>
<g><path style="opacity:1" fill="#9d9d9d" d="M 187.5,10.5 C 184.495,12.2766 181.162,13.2766 177.5,13.5C 180.505,11.7234 183.838,10.7234 187.5,10.5 Z"/></g>
<g><path style="opacity:1" fill="#9c9c9c" d="M 86.5,67.5 C 84.4309,70.5725 81.7642,72.9059 78.5,74.5C 80.5691,71.4275 83.2358,69.0941 86.5,67.5 Z"/></g>
<g><path style="opacity:1" fill="#7d7d7d" d="M 42.5,118.5 C 42.573,120.027 41.9063,121.027 40.5,121.5C 40.427,119.973 41.0937,118.973 42.5,118.5 Z"/></g>
<g><path style="opacity:1" fill="#7b7b7b" d="M 1272.5,118.5 C 1273.91,118.973 1274.57,119.973 1274.5,121.5C 1273.09,121.027 1272.43,120.027 1272.5,118.5 Z"/></g>
<g><path style="opacity:1" fill="#043a20" d="M 676.5,196.5 C 708.353,193.937 738.686,199.437 767.5,213C 797.621,229.283 817.621,253.783 827.5,286.5C 879.352,282.005 917.852,302.338 943,347.5C 959.63,387.68 955.63,425.68 931,461.5C 907.177,489.554 876.843,503.554 840,503.5C 831.856,551.169 823.522,598.836 815,646.5C 809.464,654.518 801.964,657.351 792.5,655C 720.11,625.917 645.443,618.25 568.5,632C 559.853,634.166 551.186,635.999 542.5,637.5C 529.548,637.332 523.048,630.665 523,617.5C 521.5,570.173 520.334,522.84 519.5,475.5C 467.298,466.465 436.465,435.798 427,383.5C 422.15,340.393 436.65,305.56 470.5,279C 502.158,257.882 536.158,253.049 572.5,264.5C 573.5,264.167 574.5,263.833 575.5,263.5C 591.702,236.054 614.702,216.554 644.5,205C 655.256,201.958 665.923,199.124 676.5,196.5 Z"/></g>
<g><path style="opacity:1" fill="#f9f9f9" d="M 686.5,209.5 C 724.544,207.831 757.878,219.331 786.5,244C 802.43,259.688 812.763,278.521 817.5,300.5C 843.429,296.656 868.095,300.489 891.5,312C 930.533,336.74 945.7,371.907 937,417.5C 925.993,455.508 901.159,478.675 862.5,487C 851.486,487.676 840.486,488.509 829.5,489.5C 820.677,539.439 812.177,589.439 804,639.5C 801.749,643.126 798.582,644.293 794.5,643C 749.828,623.996 703.161,613.996 654.5,613C 638.143,612.217 621.81,612.55 605.5,614C 583.03,617.206 560.697,620.873 538.5,625C 537.137,623.055 536.303,620.888 536,618.5C 535.667,613.5 535.333,608.5 535,603.5C 533.528,557.17 532.195,510.837 531,464.5C 466.716,453.55 436.716,415.55 441,350.5C 446.818,321.699 462.318,299.865 487.5,285C 517.548,269.625 548.215,268.459 579.5,281.5C 583.139,276.911 586.305,271.911 589,266.5C 608.399,237.028 635.566,218.861 670.5,212C 676.005,211.339 681.338,210.506 686.5,209.5 Z"/></g>
<g><path style="opacity:1" fill="#01391f" d="M 341.5,616.5 C 342.468,614.393 342.802,612.059 342.5,609.5C 341.5,609.5 340.5,609.5 339.5,609.5C 335.208,609.965 331.208,609.132 327.5,607C 325,604.5 322.5,602 320,599.5C 291.751,556.003 263.751,512.336 236,468.5C 227.782,439.769 237.616,419.935 265.5,409C 285.508,405.927 301.008,412.76 312,429.5C 336.993,476.487 360.66,524.154 383,572.5C 384.256,578.357 383.089,583.691 379.5,588.5C 407.828,603.993 435.495,620.493 462.5,638C 474.057,646.621 485.057,655.955 495.5,666C 571.378,664.888 647.045,668.222 722.5,676C 748.655,679.164 774.322,684.497 799.5,692C 811.795,695.384 821.961,701.884 830,711.5C 832.971,717.627 834.138,724.127 833.5,731C 832.687,747.05 831.354,763.05 829.5,779C 829.833,781.167 830.167,783.333 830.5,785.5C 889.202,745.744 952.535,736.244 1020.5,757C 1023.47,759.1 1025.3,761.934 1026,765.5C 1026.76,773.2 1027.59,780.866 1028.5,788.5C 1035.41,789.514 1042.08,791.348 1048.5,794C 1050.7,796.234 1052.53,798.734 1054,801.5C 1064.59,890.425 1074.59,979.425 1084,1068.5C 1084.67,1076.17 1084.67,1083.83 1084,1091.5C 1080.76,1098.75 1075.26,1102.92 1067.5,1104C 1057.83,1104.17 1048.17,1104.33 1038.5,1104.5C 973.506,1102.9 908.506,1102.07 843.5,1102C 831.462,1114.19 816.795,1119.69 799.5,1118.5C 782.778,1119.76 768.778,1114.26 757.5,1102C 679.172,1103.06 600.839,1103.73 522.5,1104C 514.787,1099.78 510.453,1093.28 509.5,1084.5C 512.52,1064.38 516.187,1044.38 520.5,1024.5C 471.479,1024.78 425.146,1013.95 381.5,992C 325.61,959.432 286.777,912.599 265,851.5C 250.039,808.777 242.706,764.777 243,719.5C 246.781,707.719 254.614,699.886 266.5,696C 290.102,687.179 314.435,681.346 339.5,678.5C 339.9,657.822 340.567,637.156 341.5,616.5 Z"/></g>
<g><path style="opacity:1" fill="#f7f8f7" d="M 271.5,419.5 C 283.501,418.587 293.001,422.92 300,432.5C 323.859,477.551 347.192,522.885 370,568.5C 371.651,572.658 371.817,576.825 370.5,581C 360.183,585.824 350.183,591.158 340.5,597C 335.467,598.567 331.633,597.067 329,592.5C 308.249,559.996 287.249,527.663 266,495.5C 258.829,484.496 252.162,473.162 246,461.5C 242.062,439.678 250.562,425.678 271.5,419.5 Z"/></g>
<g><path style="opacity:1" fill="#043b20" d="M 271.5,437.5 C 280.881,436.605 287.714,440.271 292,448.5C 292.265,462.236 285.598,468.236 272,466.5C 262.413,461.072 260.08,453.405 265,443.5C 267.063,441.266 269.229,439.266 271.5,437.5 Z"/></g>
<g><path style="opacity:1" fill="#ecf0ee" d="M 273.5,447.5 C 281.804,447.278 284.137,450.778 280.5,458C 271.802,458.773 269.468,455.273 273.5,447.5 Z"/></g>
<g><path style="opacity:1" fill="#043b20" d="M 612.5,536.5 C 669.039,531.864 724.039,538.697 777.5,557C 782.916,559.139 788.249,561.472 793.5,564C 799.014,568.373 798.68,571.873 792.5,574.5C 726.491,549.665 658.491,542.165 588.5,552C 580.378,553.575 572.378,555.575 564.5,558C 559.875,559.162 555.208,559.496 550.5,559C 548.022,557.062 547.855,554.895 550,552.5C 559.194,547.403 569.028,543.903 579.5,542C 590.673,540.288 601.673,538.455 612.5,536.5 Z"/></g>
<g><path style="opacity:1" fill="#f1f3f2" d="M 390.5,608.5 C 417.394,621.31 443.061,636.81 467.5,655C 472.007,658.676 476.341,662.51 480.5,666.5C 471.586,668.381 462.586,668.881 453.5,668C 433.537,646.865 412.537,627.031 390.5,608.5 Z"/></g>
<g><path style="opacity:1" fill="#8aa499" d="M 339.5,609.5 C 340.5,609.5 341.5,609.5 342.5,609.5C 342.802,612.059 342.468,614.393 341.5,616.5C 341.815,613.789 341.148,611.456 339.5,609.5 Z"/></g>
<g><path style="opacity:1" fill="#f3f5f4" d="M 374.5,609.5 C 395.417,626.579 415.583,644.579 435,663.5C 435.972,665.305 437.139,666.972 438.5,668.5C 428.851,669.665 419.184,669.832 409.5,669C 397.18,649.523 385.513,629.69 374.5,609.5 Z"/></g>
<g><path style="opacity:1" fill="#ebefed" d="M 352.5,621.5 C 353.725,622.152 354.392,623.319 354.5,625C 357.723,640.84 361.056,656.674 364.5,672.5C 364.392,673.442 364.059,674.275 363.5,675C 359.168,675.583 354.835,676.083 350.5,676.5C 350.535,658.14 351.201,639.807 352.5,621.5 Z"/></g>
<g><path style="opacity:1" fill="#f7f8f8" d="M 363.5,614.5 C 375.562,632.94 386.896,651.94 397.5,671.5C 392.758,672.114 388.091,672.947 383.5,674C 381.737,677.243 381.071,680.743 381.5,684.5C 389.472,683.468 397.472,683.302 405.5,684C 418.301,706.297 431.301,728.463 444.5,750.5C 448.833,751.833 453.167,751.833 457.5,750.5C 443.662,728.162 430.329,705.496 417.5,682.5C 425.476,681.56 433.476,680.894 441.5,680.5C 444.625,680.435 447.625,680.935 450.5,682C 469.019,702.547 483.519,725.713 494,751.5C 497.394,752.456 500.894,752.789 504.5,752.5C 504.256,747.933 503.09,743.599 501,739.5C 491.339,718.157 479.173,698.491 464.5,680.5C 464.709,679.914 465.043,679.414 465.5,679C 474.5,678.333 483.5,678.333 492.5,679C 512.803,699.741 524.136,724.574 526.5,753.5C 530.106,753.789 533.606,753.456 537,752.5C 537.04,734.276 532.374,717.276 523,701.5C 518.167,693.833 513.333,686.167 508.5,678.5C 595.083,675.137 681.083,680.637 766.5,695C 781.325,698.275 795.658,702.942 809.5,709C 812.63,711.128 815.463,713.628 818,716.5C 819.463,722.74 817.297,727.24 811.5,730C 794.236,737.754 776.236,743.088 757.5,746C 713.451,753.228 669.118,757.894 624.5,760C 560.167,761.99 495.834,761.99 431.5,760C 389.501,757.584 347.834,752.584 306.5,745C 293.816,742.079 281.482,738.079 269.5,733C 265.722,730.888 262.222,728.388 259,725.5C 257,722.167 257,718.833 259,715.5C 261.205,712.96 263.705,710.793 266.5,709C 290.084,698.582 314.751,692.416 340.5,690.5C 340.682,699.227 341.515,707.894 343,716.5C 344.999,725.164 346.999,733.831 349,742.5C 353.066,743.464 357.233,743.797 361.5,743.5C 355.798,725.289 352.464,706.622 351.5,687.5C 357.169,686.371 362.836,686.371 368.5,687.5C 374.788,707.696 382.455,727.363 391.5,746.5C 395.783,747.492 400.116,747.826 404.5,747.5C 390.209,718.796 379.375,688.796 372,657.5C 368.688,643.252 365.854,628.919 363.5,614.5 Z"/></g>
<g><path style="opacity:1" fill="#f8f8f8" d="M 887.5,769.5 C 888.167,775.5 888.833,781.5 889.5,787.5C 889.739,804.257 890.572,820.923 892,837.5C 894.21,838.749 896.376,838.582 898.5,837C 904.053,831.776 909.886,826.943 916,822.5C 923.225,827.866 930.725,832.866 938.5,837.5C 940.636,836.528 941.803,834.861 942,832.5C 941.798,811.322 940.964,790.155 939.5,769C 939.519,765.582 939.853,762.249 940.5,759C 965.391,756.808 989.724,759.474 1013.5,767C 1022.9,845.999 1031.4,925.166 1039,1004.5C 1039.41,1013.87 1040.25,1023.2 1041.5,1032.5C 1041.17,1033.83 1040.83,1035.17 1040.5,1036.5C 979.842,1020.82 919.175,1020.66 858.5,1036C 840.759,1041.86 823.759,1049.36 807.5,1058.5C 809.731,977.192 812.565,895.858 816,814.5C 836.194,793.814 860.028,778.814 887.5,769.5 Z"/></g>
<g><path style="opacity:1" fill="#f8f8f8" d="M 681.5,782.5 C 720.28,780.199 756.946,787.699 791.5,805C 795.639,807.639 799.639,810.472 803.5,813.5C 803.833,818 804.167,822.5 804.5,827C 801.465,902.492 798.632,977.992 796,1053.5C 795.798,1055.26 795.298,1056.92 794.5,1058.5C 757.04,1038.63 717.04,1027.8 674.5,1026C 634.537,1023.7 595.204,1027.53 556.5,1037.5C 572.343,959.128 588.509,880.795 605,802.5C 605.5,800.667 606.667,799.5 608.5,799C 632.358,790.865 656.691,785.365 681.5,782.5 Z"/></g>
<g><path style="opacity:1" fill="#8fa89c" d="M 887.5,769.5 C 887.56,768.957 887.893,768.624 888.5,768.5C 889.496,774.798 889.83,781.132 889.5,787.5C 888.833,781.5 888.167,775.5 887.5,769.5 Z"/></g>
<g><path style="opacity:1" fill="#083d22" d="M 656.5,854.5 C 689.976,853.345 723.309,854.845 756.5,859C 761.488,859.286 763.154,861.619 761.5,866C 758.833,866.167 756.167,866.333 753.5,866.5C 716.213,862.501 678.879,861.668 641.5,864C 640.167,862 640.167,860 641.5,858C 646.528,856.426 651.528,855.259 656.5,854.5 Z"/></g>
<g><path style="opacity:1" fill="#0f4126" d="M 935.5,858.5 C 936.822,858.33 937.989,858.663 939,859.5C 938.631,862.79 938.631,866.123 939,869.5C 940.646,873.29 942.146,877.123 943.5,881C 942.929,885.324 940.762,888.491 937,890.5C 935.268,890.266 934.434,889.266 934.5,887.5C 935.969,884.278 936.469,880.944 936,877.5C 930.281,871.234 930.114,864.9 935.5,858.5 Z"/></g>
<g><path style="opacity:1" fill="#063c20" d="M 916.5,851.5 C 917.5,851.5 918.5,851.5 919.5,851.5C 919.532,855.472 918.866,859.306 917.5,863C 919.355,868.545 921.355,874.045 923.5,879.5C 922.901,882.702 921.734,885.702 920,888.5C 918.556,890.155 916.722,890.822 914.5,890.5C 914.307,886.987 914.974,883.654 916.5,880.5C 914.943,876.386 913.11,872.386 911,868.5C 909.414,861.683 911.247,856.017 916.5,851.5 Z"/></g>
<g><path style="opacity:1" fill="#0e4025" d="M 894.5,858.5 C 895.5,858.5 896.5,858.5 897.5,858.5C 897.334,862.846 897.501,867.179 898,871.5C 904.153,877.89 903.986,884.057 897.5,890C 896.207,890.49 894.873,890.657 893.5,890.5C 893.863,887.437 894.53,884.437 895.5,881.5C 893.296,877.078 891.629,872.411 890.5,867.5C 891.03,864.11 892.363,861.11 894.5,858.5 Z"/></g>
<g><path style="opacity:1" fill="#043a21" d="M 978.5,890.5 C 981.518,890.335 984.518,890.502 987.5,891C 990.835,893.679 991.335,896.845 989,900.5C 981.282,903.913 973.449,907.08 965.5,910C 963.667,911.833 961.833,913.667 960,915.5C 959.173,923.593 957.84,931.593 956,939.5C 954.5,943.667 951.667,946.5 947.5,948C 928.19,949.492 908.856,949.826 889.5,949C 884.792,947.622 881.292,944.788 879,940.5C 876.407,931.687 874.74,922.687 874,913.5C 873.097,912.299 871.931,911.465 870.5,911C 865.896,909.939 861.229,909.273 856.5,909C 854.32,906.582 853.987,903.916 855.5,901C 891.167,900.667 926.833,900.333 962.5,900C 967.732,896.555 973.065,893.389 978.5,890.5 Z"/></g>
<g><path style="opacity:1" fill="#053b20" d="M 642.5,891.5 C 674.849,891.163 707.182,891.663 739.5,893C 745.532,893.837 751.532,894.837 757.5,896C 761.933,900.527 760.933,903.027 754.5,903.5C 714.959,898.733 675.293,897.233 635.5,899C 634.483,897.951 634.316,896.784 635,895.5C 637.255,893.501 639.755,892.168 642.5,891.5 Z"/></g>
<g><path style="opacity:1" fill="#0b3e24" d="M 642.5,927.5 C 673.54,927.001 704.54,927.834 735.5,930C 741.88,930.804 748.214,931.804 754.5,933C 758.037,934.826 758.371,937.16 755.5,940C 737.205,938.615 718.871,937.281 700.5,936C 677.162,935.472 653.829,935.639 630.5,936.5C 630.244,934.208 630.577,932.041 631.5,930C 635.347,929.367 639.014,928.533 642.5,927.5 Z"/></g>
<g><path style="opacity:1" fill="#02391f" d="M 905.5,968.5 C 910.38,969.024 914.547,971.024 918,974.5C 920.156,973.015 922.323,971.515 924.5,970C 939.037,969.22 942.871,975.387 936,988.5C 930.903,994.436 925.069,999.436 918.5,1003.5C 909.527,999.027 902.694,992.36 898,983.5C 895.967,976.076 898.467,971.076 905.5,968.5 Z"/></g>
<g><path style="opacity:1" fill="#f6f7f6" d="M 916.5,1036.5 C 959.592,1033.89 1001.92,1038.22 1043.5,1049.5C 1043.5,1054.83 1043.5,1060.17 1043.5,1065.5C 1024.48,1063.58 1005.48,1061.41 986.5,1059C 958.179,1057.6 929.845,1057.26 901.5,1058C 873.771,1060.18 846.771,1065.68 820.5,1074.5C 818.167,1073.33 815.833,1072.17 813.5,1071C 812.289,1070.11 812.289,1069.27 813.5,1068.5C 845.563,1050.24 879.897,1039.57 916.5,1036.5 Z"/></g>
<g><path style="opacity:1" fill="#f5f6f6" d="M 619.5,1037.5 C 663.643,1034.65 706.976,1039.15 749.5,1051C 763.094,1055.88 776.261,1061.71 789,1068.5C 789.667,1069.17 789.667,1069.83 789,1070.5C 786.005,1073.26 782.505,1074.1 778.5,1073C 728.096,1058.99 676.763,1053.99 624.5,1058C 600.032,1059.46 575.699,1061.96 551.5,1065.5C 551.841,1060.63 553.008,1055.96 555,1051.5C 555.903,1050.3 557.069,1049.47 558.5,1049C 578.781,1044.18 599.115,1040.34 619.5,1037.5 Z"/></g>
<g><path style="opacity:1" fill="#7b7b7b" d="M -0.5,1067.5 C 1.01208,1072.93 1.67874,1078.6 1.5,1084.5C 0.833333,1081.5 0.166667,1078.5 -0.5,1075.5C -0.5,1072.83 -0.5,1070.17 -0.5,1067.5 Z"/></g>
<g><path style="opacity:1" fill="#7b7b7b" d="M 1315.5,1066.5 C 1315.5,1069.5 1315.5,1072.5 1315.5,1075.5C 1314.83,1078.5 1314.17,1081.5 1313.5,1084.5C 1313.39,1078.27 1314.05,1072.27 1315.5,1066.5 Z"/></g>
<g><path style="opacity:1" fill="#8b8b8b" d="M 194.5,1306.5 C 197.152,1306.41 199.485,1307.08 201.5,1308.5C 198.848,1308.59 196.515,1307.92 194.5,1306.5 Z"/></g>
</svg>
